<svg width="338" height="183" viewBox="0 0 338 183" fill="none" xmlns="http://www.w3.org/2000/svg">
<path d="M234.182 101.086C233.608 101.086 233.111 100.981 232.691 100.771C232.271 100.547 231.949 100.239 231.725 99.8471C231.515 99.4551 231.41 99.0001 231.41 98.4821C231.41 97.8661 231.55 97.3621 231.83 96.9701C232.124 96.5781 232.495 96.2631 232.943 96.0251C233.391 95.7871 233.86 95.5911 234.35 95.4371C234.854 95.2691 235.33 95.1151 235.778 94.9751C236.226 94.8211 236.59 94.6461 236.87 94.4501C237.164 94.2541 237.311 93.9951 237.311 93.6731V92.3711C237.311 91.7831 237.22 91.3351 237.038 91.0271C236.87 90.7191 236.639 90.5161 236.345 90.4181C236.051 90.3061 235.722 90.2501 235.358 90.2501C235.008 90.2501 234.63 90.2991 234.224 90.3971C233.832 90.4951 233.517 90.6981 233.279 91.0061C233.545 91.0621 233.776 91.2021 233.972 91.4261C234.168 91.6501 234.266 91.9371 234.266 92.2871C234.266 92.6371 234.154 92.9171 233.93 93.1271C233.706 93.3231 233.419 93.4211 233.069 93.4211C232.663 93.4211 232.362 93.2951 232.166 93.0431C231.984 92.7771 231.893 92.4831 231.893 92.1611C231.893 91.7971 231.984 91.5031 232.166 91.2791C232.348 91.0551 232.579 90.8451 232.859 90.6491C233.181 90.4251 233.594 90.2361 234.098 90.0821C234.616 89.9141 235.197 89.8301 235.841 89.8301C236.415 89.8301 236.905 89.9001 237.311 90.0401C237.717 90.1661 238.053 90.3551 238.319 90.6071C238.683 90.9431 238.921 91.3561 239.033 91.8461C239.145 92.3221 239.201 92.8961 239.201 93.5681V99.4061C239.201 99.7561 239.25 100.008 239.348 100.162C239.46 100.316 239.628 100.393 239.852 100.393C240.006 100.393 240.153 100.358 240.293 100.288C240.433 100.218 240.601 100.106 240.797 99.9521L241.028 100.309C240.734 100.533 240.454 100.722 240.188 100.876C239.922 101.016 239.565 101.086 239.117 101.086C238.711 101.086 238.375 101.016 238.109 100.876C237.843 100.736 237.64 100.533 237.5 100.267C237.374 99.9871 237.311 99.6371 237.311 99.2171C236.933 99.8471 236.478 100.316 235.946 100.624C235.428 100.932 234.84 101.086 234.182 101.086ZM234.938 100.246C235.4 100.246 235.827 100.113 236.219 99.8471C236.625 99.5811 236.989 99.1821 237.311 98.6501V94.5341C237.143 94.7721 236.898 94.9751 236.576 95.1431C236.254 95.2971 235.904 95.4581 235.526 95.6261C235.148 95.7801 234.784 95.9691 234.434 96.1931C234.098 96.4031 233.818 96.6831 233.594 97.0331C233.37 97.3831 233.258 97.8381 233.258 98.3981C233.258 98.9581 233.405 99.4061 233.699 99.7421C234.007 100.078 234.42 100.246 234.938 100.246ZM248.715 84.5171C249.107 84.5171 249.478 84.5451 249.828 84.6011C250.178 84.6571 250.5 84.7341 250.794 84.8321C251.088 84.9161 251.333 85.0211 251.529 85.1471C251.753 85.2871 251.928 85.4551 252.054 85.6511C252.18 85.8331 252.243 86.0501 252.243 86.3021C252.243 86.6801 252.11 87.0021 251.844 87.2681C251.578 87.5341 251.263 87.6671 250.899 87.6671C250.535 87.6671 250.22 87.5341 249.954 87.2681C249.688 87.0021 249.555 86.6871 249.555 86.3231C249.555 86.0711 249.618 85.8401 249.744 85.6301C249.87 85.4201 250.038 85.2591 250.248 85.1471C250.066 85.0351 249.835 84.9581 249.555 84.9161C249.275 84.8601 248.995 84.8321 248.715 84.8321C247.987 84.8321 247.378 84.9791 246.888 85.2731C246.398 85.5671 246.013 85.9591 245.733 86.4491C245.537 86.7991 245.39 87.2471 245.292 87.7931C245.208 88.3391 245.166 89.1231 245.166 90.1451H248.547C249.107 90.1451 249.59 90.1381 249.996 90.1241C250.402 90.1101 250.766 90.0891 251.088 90.0611C251.41 90.0191 251.725 89.9631 252.033 89.8931V98.9861C252.033 99.5741 252.152 99.9731 252.39 100.183C252.642 100.393 253.055 100.498 253.629 100.498V100.939C253.391 100.925 253.027 100.911 252.537 100.897C252.061 100.869 251.578 100.855 251.088 100.855C250.612 100.855 250.129 100.869 249.639 100.897C249.149 100.911 248.785 100.925 248.547 100.939V100.498C249.121 100.498 249.527 100.393 249.765 100.183C250.017 99.9731 250.143 99.5741 250.143 98.9861V92.4131C250.143 91.7831 250.031 91.3211 249.807 91.0271C249.583 90.7191 249.163 90.5651 248.547 90.5651H245.166V98.9861C245.166 99.5881 245.327 99.9941 245.649 100.204C245.971 100.4 246.412 100.498 246.972 100.498V100.939C246.692 100.925 246.293 100.911 245.775 100.897C245.271 100.869 244.753 100.855 244.221 100.855C243.703 100.855 243.206 100.869 242.73 100.897C242.268 100.911 241.918 100.925 241.68 100.939V100.498C242.254 100.498 242.66 100.393 242.898 100.183C243.15 99.9731 243.276 99.5741 243.276 98.9861V90.5651H241.596V90.1451H243.276C243.276 89.2491 243.388 88.4441 243.612 87.7301C243.85 87.0161 244.242 86.4001 244.788 85.8821C245.194 85.5041 245.719 85.1821 246.363 84.9161C247.007 84.6501 247.791 84.5171 248.715 84.5171Z" fill="#86EAF8"/>
<path d="M74.2475 92.3065C75.1435 92.3065 75.9485 92.5025 76.6625 92.8945C77.3765 93.2865 77.9435 93.9025 78.3635 94.7425C78.7975 95.5825 79.0145 96.6745 79.0145 98.0185C79.0145 99.3625 78.7975 100.455 78.3635 101.295C77.9435 102.121 77.3765 102.73 76.6625 103.122C75.9485 103.514 75.1435 103.71 74.2475 103.71C73.3655 103.71 72.5605 103.514 71.8325 103.122C71.1185 102.73 70.5445 102.121 70.1105 101.295C69.6905 100.455 69.4805 99.3625 69.4805 98.0185C69.4805 96.6745 69.6905 95.5825 70.1105 94.7425C70.5445 93.9025 71.1185 93.2865 71.8325 92.8945C72.5605 92.5025 73.3655 92.3065 74.2475 92.3065ZM74.2475 92.7265C73.4495 92.7265 72.7915 93.1395 72.2735 93.9655C71.7695 94.7915 71.5175 96.1425 71.5175 98.0185C71.5175 99.8945 71.7695 101.246 72.2735 102.072C72.7915 102.884 73.4495 103.29 74.2475 103.29C75.0455 103.29 75.6965 102.884 76.2005 102.072C76.7185 101.246 76.9775 99.8945 76.9775 98.0185C76.9775 96.1425 76.7185 94.7915 76.2005 93.9655C75.6965 93.1395 75.0455 92.7265 74.2475 92.7265ZM83.6993 86.9725V94.8265C84.0633 93.8745 84.5673 93.2165 85.2113 92.8525C85.8693 92.4885 86.5553 92.3065 87.2693 92.3065C87.8013 92.3065 88.2423 92.3765 88.5923 92.5165C88.9563 92.6565 89.2573 92.8525 89.4953 93.1045C89.7613 93.3845 89.9503 93.7345 90.0623 94.1545C90.1743 94.5745 90.2303 95.1415 90.2303 95.8555V101.463C90.2303 102.051 90.3493 102.45 90.5873 102.66C90.8393 102.87 91.2523 102.975 91.8263 102.975V103.416C91.5883 103.402 91.2243 103.388 90.7343 103.374C90.2443 103.346 89.7683 103.332 89.3063 103.332C88.8443 103.332 88.3893 103.346 87.9413 103.374C87.5073 103.388 87.1783 103.402 86.9543 103.416V102.975C87.4583 102.975 87.8153 102.87 88.0253 102.66C88.2353 102.45 88.3403 102.051 88.3403 101.463V95.3935C88.3403 94.9595 88.3053 94.5605 88.2353 94.1965C88.1653 93.8325 88.0043 93.5385 87.7523 93.3145C87.5143 93.0905 87.1433 92.9785 86.6393 92.9785C86.0653 92.9785 85.5543 93.1395 85.1063 93.4615C84.6723 93.7835 84.3293 94.2315 84.0773 94.8055C83.8253 95.3795 83.6993 96.0375 83.6993 96.7795V101.463C83.6993 102.051 83.8043 102.45 84.0143 102.66C84.2243 102.87 84.5813 102.975 85.0853 102.975V103.416C84.8613 103.402 84.5253 103.388 84.0773 103.374C83.6433 103.346 83.1953 103.332 82.7333 103.332C82.2713 103.332 81.7953 103.346 81.3053 103.374C80.8153 103.388 80.4513 103.402 80.2133 103.416V102.975C80.7873 102.975 81.1933 102.87 81.4313 102.66C81.6833 102.45 81.8093 102.051 81.8093 101.463V89.4925C81.8093 88.8625 81.6973 88.4005 81.4733 88.1065C81.2493 87.7985 80.8293 87.6445 80.2133 87.6445V87.2035C80.6613 87.2455 81.0953 87.2665 81.5153 87.2665C81.9213 87.2665 82.3063 87.2455 82.6703 87.2035C83.0483 87.1475 83.3913 87.0705 83.6993 86.9725ZM95.73 103.563C95.156 103.563 94.659 103.458 94.239 103.248C93.819 103.024 93.497 102.716 93.273 102.324C93.063 101.932 92.958 101.477 92.958 100.959C92.958 100.343 93.098 99.8385 93.378 99.4465C93.672 99.0545 94.043 98.7395 94.491 98.5015C94.939 98.2635 95.408 98.0675 95.898 97.9135C96.402 97.7455 96.878 97.5915 97.326 97.4515C97.774 97.2975 98.138 97.1225 98.418 96.9265C98.712 96.7305 98.859 96.4715 98.859 96.1495V94.8475C98.859 94.2595 98.768 93.8115 98.586 93.5035C98.418 93.1955 98.187 92.9925 97.893 92.8945C97.599 92.7825 97.27 92.7265 96.906 92.7265C96.556 92.7265 96.178 92.7755 95.772 92.8735C95.38 92.9715 95.065 93.1745 94.827 93.4825C95.093 93.5385 95.324 93.6785 95.52 93.9025C95.716 94.1265 95.814 94.4135 95.814 94.7635C95.814 95.1135 95.702 95.3935 95.478 95.6035C95.254 95.7995 94.967 95.8975 94.617 95.8975C94.211 95.8975 93.91 95.7715 93.714 95.5195C93.532 95.2535 93.441 94.9595 93.441 94.6375C93.441 94.2735 93.532 93.9795 93.714 93.7555C93.896 93.5315 94.127 93.3215 94.407 93.1255C94.729 92.9015 95.142 92.7125 95.646 92.5585C96.164 92.3905 96.745 92.3065 97.389 92.3065C97.963 92.3065 98.453 92.3765 98.859 92.5165C99.265 92.6425 99.601 92.8315 99.867 93.0835C100.231 93.4195 100.469 93.8325 100.581 94.3225C100.693 94.7985 100.749 95.3725 100.749 96.0445V101.883C100.749 102.233 100.798 102.485 100.896 102.639C101.008 102.793 101.176 102.87 101.4 102.87C101.554 102.87 101.701 102.835 101.841 102.765C101.981 102.695 102.149 102.583 102.345 102.429L102.576 102.786C102.282 103.01 102.002 103.199 101.736 103.353C101.47 103.493 101.113 103.563 100.665 103.563C100.259 103.563 99.923 103.493 99.657 103.353C99.391 103.213 99.188 103.01 99.048 102.744C98.922 102.464 98.859 102.114 98.859 101.694C98.481 102.324 98.026 102.793 97.494 103.101C96.976 103.409 96.388 103.563 95.73 103.563ZM96.486 102.723C96.948 102.723 97.375 102.59 97.767 102.324C98.173 102.058 98.537 101.659 98.859 101.127V97.0105C98.691 97.2485 98.446 97.4515 98.124 97.6195C97.802 97.7735 97.452 97.9345 97.074 98.1025C96.696 98.2565 96.332 98.4455 95.982 98.6695C95.646 98.8795 95.366 99.1595 95.142 99.5095C94.918 99.8595 94.806 100.315 94.806 100.875C94.806 101.435 94.953 101.883 95.247 102.219C95.555 102.555 95.968 102.723 96.486 102.723ZM110.137 92.3065C110.627 92.3065 111.054 92.3765 111.418 92.5165C111.782 92.6565 112.083 92.8525 112.321 93.1045C112.587 93.3845 112.769 93.7485 112.867 94.1965C112.965 94.6445 113.014 95.1975 113.014 95.8555V101.463C113.014 102.051 113.133 102.45 113.371 102.66C113.623 102.87 114.036 102.975 114.61 102.975V103.416C114.372 103.402 114.008 103.388 113.518 103.374C113.028 103.346 112.552 103.332 112.09 103.332C111.628 103.332 111.173 103.346 110.725 103.374C110.291 103.388 109.962 103.402 109.738 103.416V102.975C110.242 102.975 110.599 102.87 110.809 102.66C111.019 102.45 111.124 102.051 111.124 101.463V95.3935C111.124 94.9595 111.096 94.5605 111.04 94.1965C110.984 93.8325 110.844 93.5385 110.62 93.3145C110.396 93.0905 110.032 92.9785 109.528 92.9785C108.982 92.9785 108.492 93.1465 108.058 93.4825C107.638 93.8185 107.302 94.2805 107.05 94.8685C106.812 95.4425 106.693 96.0865 106.693 96.8005V101.463C106.693 102.051 106.798 102.45 107.008 102.66C107.218 102.87 107.575 102.975 108.079 102.975V103.416C107.855 103.402 107.519 103.388 107.071 103.374C106.637 103.346 106.189 103.332 105.727 103.332C105.265 103.332 104.789 103.346 104.299 103.374C103.809 103.388 103.445 103.402 103.207 103.416V102.975C103.781 102.975 104.187 102.87 104.425 102.66C104.677 102.45 104.803 102.051 104.803 101.463V94.8895C104.803 94.2595 104.691 93.7975 104.467 93.5035C104.243 93.1955 103.823 93.0415 103.207 93.0415V92.6005C103.655 92.6425 104.089 92.6635 104.509 92.6635C104.915 92.6635 105.3 92.6425 105.664 92.6005C106.042 92.5445 106.385 92.4675 106.693 92.3695V94.8475C107.057 93.9375 107.554 93.2865 108.184 92.8945C108.814 92.5025 109.465 92.3065 110.137 92.3065ZM116.458 92.3065C116.948 92.3065 117.375 92.3765 117.739 92.5165C118.103 92.6565 118.404 92.8525 118.642 93.1045C118.908 93.3845 119.09 93.7485 119.188 94.1965C119.286 94.6445 119.335 95.1975 119.335 95.8555V101.463C119.335 102.051 119.454 102.45 119.692 102.66C119.944 102.87 120.357 102.975 120.931 102.975V103.416C120.693 103.402 120.329 103.388 119.839 103.374C119.349 103.346 118.873 103.332 118.411 103.332C117.949 103.332 117.494 103.346 117.046 103.374C116.612 103.388 116.283 103.402 116.059 103.416V102.975C116.563 102.975 116.92 102.87 117.13 102.66C117.34 102.45 117.445 102.051 117.445 101.463V95.3935C117.445 94.9595 117.417 94.5605 117.361 94.1965C117.305 93.8325 117.165 93.5385 116.941 93.3145C116.717 93.0905 116.353 92.9785 115.849 92.9785C115.303 92.9785 114.813 93.1465 114.379 93.4825C113.959 93.8185 113.623 94.2735 113.371 94.8475C113.133 95.4215 113.014 96.0655 113.014 96.7795L112.951 94.8265C113.329 93.8605 113.84 93.2025 114.484 92.8525C115.128 92.4885 115.786 92.3065 116.458 92.3065ZM128.779 92.3065C129.269 92.3065 129.696 92.3765 130.06 92.5165C130.424 92.6565 130.725 92.8525 130.963 93.1045C131.229 93.3845 131.411 93.7485 131.509 94.1965C131.607 94.6445 131.656 95.1975 131.656 95.8555V101.463C131.656 102.051 131.775 102.45 132.013 102.66C132.265 102.87 132.678 102.975 133.252 102.975V103.416C133.014 103.402 132.65 103.388 132.16 103.374C131.67 103.346 131.194 103.332 130.732 103.332C130.27 103.332 129.815 103.346 129.367 103.374C128.933 103.388 128.604 103.402 128.38 103.416V102.975C128.884 102.975 129.241 102.87 129.451 102.66C129.661 102.45 129.766 102.051 129.766 101.463V95.3935C129.766 94.9595 129.738 94.5605 129.682 94.1965C129.626 93.8325 129.486 93.5385 129.262 93.3145C129.038 93.0905 128.674 92.9785 128.17 92.9785C127.624 92.9785 127.134 93.1465 126.7 93.4825C126.28 93.8185 125.944 94.2805 125.692 94.8685C125.454 95.4425 125.335 96.0865 125.335 96.8005V101.463C125.335 102.051 125.44 102.45 125.65 102.66C125.86 102.87 126.217 102.975 126.721 102.975V103.416C126.497 103.402 126.161 103.388 125.713 103.374C125.279 103.346 124.831 103.332 124.369 103.332C123.907 103.332 123.431 103.346 122.941 103.374C122.451 103.388 122.087 103.402 121.849 103.416V102.975C122.423 102.975 122.829 102.87 123.067 102.66C123.319 102.45 123.445 102.051 123.445 101.463V94.8895C123.445 94.2595 123.333 93.7975 123.109 93.5035C122.885 93.1955 122.465 93.0415 121.849 93.0415V92.6005C122.297 92.6425 122.731 92.6635 123.151 92.6635C123.557 92.6635 123.942 92.6425 124.306 92.6005C124.684 92.5445 125.027 92.4675 125.335 92.3695V94.8475C125.699 93.9375 126.196 93.2865 126.826 92.8945C127.456 92.5025 128.107 92.3065 128.779 92.3065ZM135.1 92.3065C135.59 92.3065 136.017 92.3765 136.381 92.5165C136.745 92.6565 137.046 92.8525 137.284 93.1045C137.55 93.3845 137.732 93.7485 137.83 94.1965C137.928 94.6445 137.977 95.1975 137.977 95.8555V101.463C137.977 102.051 138.096 102.45 138.334 102.66C138.586 102.87 138.999 102.975 139.573 102.975V103.416C139.335 103.402 138.971 103.388 138.481 103.374C137.991 103.346 137.515 103.332 137.053 103.332C136.591 103.332 136.136 103.346 135.688 103.374C135.254 103.388 134.925 103.402 134.701 103.416V102.975C135.205 102.975 135.562 102.87 135.772 102.66C135.982 102.45 136.087 102.051 136.087 101.463V95.3935C136.087 94.9595 136.059 94.5605 136.003 94.1965C135.947 93.8325 135.807 93.5385 135.583 93.3145C135.359 93.0905 134.995 92.9785 134.491 92.9785C133.945 92.9785 133.455 93.1465 133.021 93.4825C132.601 93.8185 132.265 94.2735 132.013 94.8475C131.775 95.4215 131.656 96.0655 131.656 96.7795L131.593 94.8265C131.971 93.8605 132.482 93.2025 133.126 92.8525C133.77 92.4885 134.428 92.3065 135.1 92.3065ZM145.593 92.3065C146.825 92.3065 147.784 92.6845 148.47 93.4405C149.17 94.1825 149.52 95.3445 149.52 96.9265H142.107L142.086 96.5275H147.504C147.532 95.8415 147.476 95.2115 147.336 94.6375C147.196 94.0495 146.972 93.5805 146.664 93.2305C146.37 92.8805 145.985 92.7055 145.509 92.7055C144.865 92.7055 144.291 93.0275 143.787 93.6715C143.297 94.3155 143.003 95.3375 142.905 96.7375L142.968 96.8215C142.94 97.0315 142.919 97.2625 142.905 97.5145C142.891 97.7665 142.884 98.0185 142.884 98.2705C142.884 99.2225 143.038 100.042 143.346 100.728C143.654 101.414 144.053 101.939 144.543 102.303C145.047 102.653 145.565 102.828 146.097 102.828C146.517 102.828 146.916 102.765 147.294 102.639C147.672 102.499 148.022 102.275 148.344 101.967C148.666 101.659 148.946 101.246 149.184 100.728L149.604 100.896C149.45 101.358 149.198 101.806 148.848 102.24C148.498 102.674 148.057 103.031 147.525 103.311C146.993 103.577 146.377 103.71 145.677 103.71C144.669 103.71 143.801 103.479 143.073 103.017C142.359 102.555 141.806 101.918 141.414 101.106C141.036 100.28 140.847 99.3345 140.847 98.2705C140.847 97.0385 141.043 95.9815 141.435 95.0995C141.827 94.2035 142.38 93.5175 143.094 93.0415C143.808 92.5515 144.641 92.3065 145.593 92.3065ZM160.668 86.9515V101.127C160.668 101.757 160.78 102.226 161.004 102.534C161.242 102.828 161.662 102.975 162.264 102.975V103.416C161.83 103.374 161.396 103.353 160.962 103.353C160.556 103.353 160.164 103.374 159.786 103.416C159.422 103.458 159.086 103.535 158.778 103.647V89.4715C158.778 88.8415 158.666 88.3795 158.442 88.0855C158.218 87.7775 157.798 87.6235 157.182 87.6235V87.1825C157.63 87.2245 158.064 87.2455 158.484 87.2455C158.89 87.2455 159.275 87.2245 159.639 87.1825C160.017 87.1265 160.36 87.0495 160.668 86.9515ZM156.258 92.3065C156.874 92.3065 157.448 92.4535 157.98 92.7475C158.526 93.0415 158.89 93.5455 159.072 94.2595L158.799 94.4695C158.603 93.8815 158.295 93.4545 157.875 93.1885C157.469 92.9225 156.986 92.7895 156.426 92.7895C155.6 92.7895 154.907 93.2165 154.347 94.0705C153.801 94.9245 153.535 96.2405 153.549 98.0185C153.549 99.1525 153.654 100.098 153.864 100.854C154.088 101.596 154.41 102.156 154.83 102.534C155.264 102.898 155.789 103.08 156.405 103.08C156.993 103.08 157.525 102.828 158.001 102.324C158.477 101.82 158.764 101.078 158.862 100.098L159.114 100.392C159.002 101.456 158.659 102.275 158.085 102.849C157.525 103.423 156.762 103.71 155.796 103.71C154.928 103.71 154.165 103.5 153.507 103.08C152.863 102.66 152.366 102.03 152.016 101.19C151.68 100.35 151.512 99.2925 151.512 98.0185C151.512 96.7445 151.729 95.6875 152.163 94.8475C152.611 93.9935 153.192 93.3565 153.906 92.9365C154.634 92.5165 155.418 92.3065 156.258 92.3065Z" fill="#86EAF8"/>
<mask id="mask0_9_21" style="mask-type:alpha" maskUnits="userSpaceOnUse" x="0" y="0" width="336" height="104">
<path d="M0.492004 0.662292H335.485V88.5866L284.602 91.2294L267.213 85.4332H259.398H227.497V100.799H189.35L161.65 85.4332H110.53H61.2137L53.3807 100.799L0.492005 103.416L0.492004 0.662292Z" fill="#86EAF8"/>
</mask>
<g mask="url(#mask0_9_21)">
<path d="M177.777 28.4916V32.2916C173.47 32.4183 170.177 32.9249 167.897 33.8116C165.743 34.5716 164.287 36.0916 163.527 38.3716C162.767 40.5249 162.387 43.9449 162.387 48.6316V142.872C162.387 147.432 162.767 150.852 163.527 153.132C164.287 155.412 165.743 156.932 167.897 157.692C170.177 158.452 173.47 158.958 177.777 159.212V163.012C174.863 162.758 171.19 162.632 166.757 162.632C162.45 162.505 158.08 162.442 153.647 162.442C148.707 162.442 144.083 162.505 139.777 162.632C135.47 162.632 131.987 162.758 129.327 163.012V159.212C133.633 158.958 136.863 158.452 139.017 157.692C141.297 156.932 142.817 155.412 143.577 153.132C144.337 150.852 144.717 147.432 144.717 142.872V38.3716L145.477 38.9416L98.9266 163.962H95.8866L48.0066 40.6516V140.972C48.0066 145.532 48.3866 149.142 49.1466 151.802C50.0333 154.335 51.6799 156.172 54.0866 157.312C56.6199 158.325 60.3566 158.958 65.2966 159.212V163.012C63.0166 162.758 60.0399 162.632 56.3666 162.632C52.6933 162.505 49.2099 162.442 45.9166 162.442C42.7499 162.442 39.5199 162.505 36.2266 162.632C33.0599 162.632 30.3999 162.758 28.2466 163.012V159.212C32.5533 158.958 35.7833 158.325 37.9366 157.312C40.2166 156.172 41.7366 154.335 42.4966 151.802C43.2566 149.142 43.6366 145.532 43.6366 140.972V48.6316C43.6366 43.9449 43.2566 40.5249 42.4966 38.3716C41.7366 36.0916 40.2166 34.5716 37.9366 33.8116C35.7833 32.9249 32.5533 32.4183 28.2466 32.2916V28.4916C30.3999 28.6183 33.0599 28.7449 36.2266 28.8716C39.5199 28.9983 42.7499 29.0616 45.9166 29.0616C48.7033 29.0616 51.5533 28.9983 54.4666 28.8716C57.5066 28.7449 60.0399 28.6183 62.0666 28.4916L105.197 142.112L101.967 143.632L144.717 29.0616C146.237 29.0616 147.693 29.0616 149.087 29.0616C150.607 29.0616 152.127 29.0616 153.647 29.0616C158.08 29.0616 162.45 28.9983 166.757 28.8716C171.19 28.7449 174.863 28.6183 177.777 28.4916ZM193.754 28.4916C196.414 28.6183 199.898 28.7449 204.204 28.8716C208.511 28.9983 212.754 29.0616 216.934 29.0616C222.888 29.0616 228.588 28.9983 234.034 28.8716C239.481 28.7449 243.344 28.6816 245.624 28.6816C255.884 28.6816 264.371 30.1383 271.084 33.0516C277.924 35.9649 282.991 39.9549 286.284 45.0216C289.704 49.9616 291.414 55.5349 291.414 61.7416C291.414 65.5416 290.654 69.5949 289.134 73.9016C287.614 78.2083 284.954 82.2616 281.154 86.0616C277.481 89.8616 272.414 93.0283 265.954 95.5616C259.494 97.9683 251.324 99.1716 241.444 99.1716H223.204V95.3716H239.544C248.538 95.3716 255.378 93.9783 260.064 91.1916C264.878 88.2783 268.108 84.4783 269.754 79.7916C271.528 74.9783 272.414 69.6583 272.414 63.8316C272.414 53.8249 270.008 46.0983 265.194 40.6516C260.508 35.0783 252.401 32.2916 240.874 32.2916C235.048 32.2916 231.248 33.3683 229.474 35.5216C227.701 37.6749 226.814 42.0449 226.814 48.6316V142.872C226.814 147.432 227.194 150.852 227.954 153.132C228.714 155.412 230.171 156.932 232.324 157.692C234.604 158.452 237.898 158.958 242.204 159.212V163.012C239.291 162.758 235.618 162.632 231.184 162.632C226.878 162.505 222.508 162.442 218.074 162.442C213.134 162.442 208.511 162.505 204.204 162.632C199.898 162.632 196.414 162.758 193.754 163.012V159.212C198.061 158.958 201.291 158.452 203.444 157.692C205.724 156.932 207.244 155.412 208.004 153.132C208.764 150.852 209.144 147.432 209.144 142.872V48.6316C209.144 43.9449 208.764 40.5249 208.004 38.3716C207.244 36.0916 205.724 34.5716 203.444 33.8116C201.291 32.9249 198.061 32.4183 193.754 32.2916V28.4916ZM223.964 95.9416C230.804 96.1949 236.188 96.5116 240.114 96.8916C244.041 97.1449 247.208 97.3983 249.614 97.6516C252.148 97.9049 254.554 98.2216 256.834 98.6016C265.321 99.9949 271.401 102.592 275.074 106.392C278.874 110.065 281.661 115.828 283.434 123.682L288.184 143.062C289.451 148.635 290.718 152.688 291.984 155.222C293.378 157.628 295.468 158.768 298.254 158.642C300.408 158.515 302.181 157.818 303.574 156.552C305.094 155.285 306.678 153.575 308.324 151.422L311.174 153.512C308.514 157.438 305.728 160.478 302.814 162.632C300.028 164.658 296.038 165.672 290.844 165.672C286.158 165.672 282.041 164.278 278.494 161.492C274.948 158.705 272.288 153.258 270.514 145.152L266.334 126.152C265.194 120.705 263.864 116.018 262.344 112.092C260.951 108.038 258.924 104.872 256.264 102.592C253.731 100.312 249.931 99.1716 244.864 99.1716H224.344L223.964 95.9416Z" fill="#86EAF8"/>
</g>
<mask id="mask1_9_21" style="mask-type:alpha" maskUnits="userSpaceOnUse" x="2" y="76" width="336" height="107">
<path d="M2.01657 98.451H64.3859L66.7906 106.332H161.262L208.43 98.451L231.228 84.3036V105.198L255.293 104.265V85.6095L266.673 76.4684L337.009 98.451V182.3H2.01657V98.451Z" fill="#86EAF8"/>
</mask>
<g mask="url(#mask1_9_21)">
<path d="M177.777 28.4916V32.2916C173.47 32.4183 170.177 32.9249 167.897 33.8116C165.743 34.5716 164.287 36.0916 163.527 38.3716C162.767 40.5249 162.387 43.9449 162.387 48.6316V142.872C162.387 147.432 162.767 150.852 163.527 153.132C164.287 155.412 165.743 156.932 167.897 157.692C170.177 158.452 173.47 158.958 177.777 159.212V163.012C174.863 162.758 171.19 162.632 166.757 162.632C162.45 162.505 158.08 162.442 153.647 162.442C148.707 162.442 144.083 162.505 139.777 162.632C135.47 162.632 131.987 162.758 129.327 163.012V159.212C133.633 158.958 136.863 158.452 139.017 157.692C141.297 156.932 142.817 155.412 143.577 153.132C144.337 150.852 144.717 147.432 144.717 142.872V38.3716L145.477 38.9416L98.9266 163.962H95.8866L48.0066 40.6516V140.972C48.0066 145.532 48.3866 149.142 49.1466 151.802C50.0333 154.335 51.6799 156.172 54.0866 157.312C56.6199 158.325 60.3566 158.958 65.2966 159.212V163.012C63.0166 162.758 60.0399 162.632 56.3666 162.632C52.6933 162.505 49.2099 162.442 45.9166 162.442C42.7499 162.442 39.5199 162.505 36.2266 162.632C33.0599 162.632 30.3999 162.758 28.2466 163.012V159.212C32.5533 158.958 35.7833 158.325 37.9366 157.312C40.2166 156.172 41.7366 154.335 42.4966 151.802C43.2566 149.142 43.6366 145.532 43.6366 140.972V48.6316C43.6366 43.9449 43.2566 40.5249 42.4966 38.3716C41.7366 36.0916 40.2166 34.5716 37.9366 33.8116C35.7833 32.9249 32.5533 32.4183 28.2466 32.2916V28.4916C30.3999 28.6183 33.0599 28.7449 36.2266 28.8716C39.5199 28.9983 42.7499 29.0616 45.9166 29.0616C48.7033 29.0616 51.5533 28.9983 54.4666 28.8716C57.5066 28.7449 60.0399 28.6183 62.0666 28.4916L105.197 142.112L101.967 143.632L144.717 29.0616C146.237 29.0616 147.693 29.0616 149.087 29.0616C150.607 29.0616 152.127 29.0616 153.647 29.0616C158.08 29.0616 162.45 28.9983 166.757 28.8716C171.19 28.7449 174.863 28.6183 177.777 28.4916ZM193.754 28.4916C196.414 28.6183 199.898 28.7449 204.204 28.8716C208.511 28.9983 212.754 29.0616 216.934 29.0616C222.888 29.0616 228.588 28.9983 234.034 28.8716C239.481 28.7449 243.344 28.6816 245.624 28.6816C255.884 28.6816 264.371 30.1383 271.084 33.0516C277.924 35.9649 282.991 39.9549 286.284 45.0216C289.704 49.9616 291.414 55.5349 291.414 61.7416C291.414 65.5416 290.654 69.5949 289.134 73.9016C287.614 78.2083 284.954 82.2616 281.154 86.0616C277.481 89.8616 272.414 93.0283 265.954 95.5616C259.494 97.9683 251.324 99.1716 241.444 99.1716H223.204V95.3716H239.544C248.538 95.3716 255.378 93.9783 260.064 91.1916C264.878 88.2783 268.108 84.4783 269.754 79.7916C271.528 74.9783 272.414 69.6583 272.414 63.8316C272.414 53.8249 270.008 46.0983 265.194 40.6516C260.508 35.0783 252.401 32.2916 240.874 32.2916C235.048 32.2916 231.248 33.3683 229.474 35.5216C227.701 37.6749 226.814 42.0449 226.814 48.6316V142.872C226.814 147.432 227.194 150.852 227.954 153.132C228.714 155.412 230.171 156.932 232.324 157.692C234.604 158.452 237.898 158.958 242.204 159.212V163.012C239.291 162.758 235.618 162.632 231.184 162.632C226.878 162.505 222.508 162.442 218.074 162.442C213.134 162.442 208.511 162.505 204.204 162.632C199.898 162.632 196.414 162.758 193.754 163.012V159.212C198.061 158.958 201.291 158.452 203.444 157.692C205.724 156.932 207.244 155.412 208.004 153.132C208.764 150.852 209.144 147.432 209.144 142.872V48.6316C209.144 43.9449 208.764 40.5249 208.004 38.3716C207.244 36.0916 205.724 34.5716 203.444 33.8116C201.291 32.9249 198.061 32.4183 193.754 32.2916V28.4916ZM223.964 95.9416C230.804 96.1949 236.188 96.5116 240.114 96.8916C244.041 97.1449 247.208 97.3983 249.614 97.6516C252.148 97.9049 254.554 98.2216 256.834 98.6016C265.321 99.9949 271.401 102.592 275.074 106.392C278.874 110.065 281.661 115.828 283.434 123.682L288.184 143.062C289.451 148.635 290.718 152.688 291.984 155.222C293.378 157.628 295.468 158.768 298.254 158.642C300.408 158.515 302.181 157.818 303.574 156.552C305.094 155.285 306.678 153.575 308.324 151.422L311.174 153.512C308.514 157.438 305.728 160.478 302.814 162.632C300.028 164.658 296.038 165.672 290.844 165.672C286.158 165.672 282.041 164.278 278.494 161.492C274.948 158.705 272.288 153.258 270.514 145.152L266.334 126.152C265.194 120.705 263.864 116.018 262.344 112.092C260.951 108.038 258.924 104.872 256.264 102.592C253.731 100.312 249.931 99.1716 244.864 99.1716H224.344L223.964 95.9416Z" fill="#86EAF8"/>
</g>
</svg>
